# xmcd
#
# Track frame offsets:
#	150
#	16980
#	33255
#	44045
#	60420
#	69995
#	82680
#	95575
#	109412
#	124915
#	143342
#	155605
#	169507
#
# Disc length: 2502 seconds
#
# Revision: 22
# Processed by: cddbd v1.5.2PL0 Copyright (c) Steve Scherf et al.
# Submitted via: dBpowerAMP V4.0
#
DISCID=a009c40d
DTITLE=Franz Ferdinand - You Could Have It So Much Better
DYEAR=2005
DGENRE=Rock
TTITLE0=The Fallen
TTITLE1=Do You Want To
TTITLE2=This Boy
TTITLE3=Walk Away
TTITLE4=Evil and a Heathen
TTITLE5=You're the Reason I'm Leaving
TTITLE6=Eleanor Put Your Boots On
TTITLE7=Well That Was Easy
TTITLE8=What You Meant
TTITLE9=I'm Your Villain
TTITLE10=You Could Have It So Much Better
TTITLE11=Fade Together
TTITLE12=Outsiders
EXTD=Franz Ferdinand:  You Could Have It So Much Better
EXTT0=
EXTT1=
EXTT2=
EXTT3=
EXTT4=
EXTT5=
EXTT6=
EXTT7=
EXTT8=
EXTT9=
EXTT10=
EXTT11=
EXTT12=
PLAYORDER=
